<svg version="1.1" xmlns="http://www.w3.org/2000/svg" xmlns:xlink="http://www.w3.org/1999/xlink" width="800px" height="800px" viewBox="0,0,256,256"><g fill="#fc8019" fill-rule="nonzero" stroke="none" stroke-width="1" stroke-linecap="butt" stroke-linejoin="miter" stroke-miterlimit="10" stroke-dasharray="" stroke-dashoffset="0" font-family="none" font-weight="none" font-size="none" text-anchor="none" style="mix-blend-mode: normal"><g transform="translate(0,-12.8) scale(8.53333,8.53333)"><path d="M3,7c-1.105,0 -2,0.895 -2,2v12c-0.36064,-0.0051 -0.69608,0.18438 -0.87789,0.49587c-0.18181,0.3115 -0.18181,0.69676 0,1.00825c0.18181,0.3115 0.51725,0.50097 0.87789,0.49587h2h0.05078c0.2474,1.68541 1.69929,3 3.44922,3c1.74993,0 3.20182,-1.31459 3.44922,-3h11.10156c0.2474,1.68541 1.69929,3 3.44922,3c1.74994,0 3.20184,-1.31458 3.44922,-3h1.05078c0.36064,0.0051 0.69608,-0.18438 0.87789,-0.49587c0.18181,-0.3115 0.18181,-0.69676 0,-1.00825c-0.18181,-0.3115 -0.51725,-0.50097 -0.87789,-0.49587v-5c0,-1.105 -0.895,-2 -2,-2h-5c-0.552,0 -1,-0.448 -1,-1v-3c0,-0.552 0.448,-1 1,-1h2.85742l-0.33789,-0.78711c-0.315,-0.735 -1.03789,-1.21289 -1.83789,-1.21289zM5,9.5c0,0.82843 0.67157,1.5 1.5,1.5c0.82843,0 1.5,-0.67157 1.5,-1.5c0,0.82843 0.67157,1.5 1.5,1.5c0.82843,0 1.5,-0.67157 1.5,-1.5c0,0.82843 0.67157,1.5 1.5,1.5c0.82843,0 1.5,-0.67157 1.5,-1.5c0,0.82843 0.67157,1.5 1.5,1.5c0.82843,0 1.5,-0.67157 1.5,-1.5c0,0.82843 0.67157,1.5 1.5,1.5c0.17045,-0.00068 0.33954,-0.0304 0.5,-0.08789v4.08789c0,0.552 -0.448,1 -1,1h-14c-0.552,0 -1,-0.448 -1,-1v-4.08789c0.16046,0.05749 0.32955,0.08722 0.5,0.08789c0.82843,0 1.5,-0.67157 1.5,-1.5zM6.5,21c0.84027,0 1.5,0.65973 1.5,1.5c0,0.84027 -0.65973,1.5 -1.5,1.5c-0.84027,0 -1.5,-0.65973 -1.5,-1.5c0,-0.84027 0.65973,-1.5 1.5,-1.5zM24.5,21c0.84027,0 1.5,0.65973 1.5,1.5c0,0.84027 -0.65973,1.5 -1.5,1.5c-0.84027,0 -1.5,-0.65973 -1.5,-1.5c0,-0.84027 0.65973,-1.5 1.5,-1.5z"></path></g></g></svg>